<?xml version="1.0" encoding="utf-8"?>
<!-- Generator: Adobe Illustrator 19.0.0, SVG Export Plug-In . SVG Version: 6.00 Build 0)  -->
<svg version="1.1" id="Camada_1" xmlns="http://www.w3.org/2000/svg" xmlns:xlink="http://www.w3.org/1999/xlink" x="0px" y="0px"
	 viewBox="-140 261 330.1 272" style="enable-background:new -140 261 330.1 272;" xml:space="preserve">
<style type="text/css">
	.st0{display:none;}
	.st1{display:inline;opacity:0.18;fill:#5C5C5C;stroke:#FFFFFF;stroke-width:2;stroke-miterlimit:10;enable-background:new    ;}
	.st2{fill:#EDEDED;}
	.st3{fill:#FFFFFF;}
	.st4{fill:#25AFBA;}
</style>
<g id="Camada_2" class="st0">
	<rect id="XMLID_53_" x="10" y="527" class="st1" width="98" height="98"/>
	<rect id="XMLID_51_" x="108" y="527" class="st1" width="98" height="98"/>
	<rect id="XMLID_49_" x="206" y="527" class="st1" width="98" height="98"/>
	<rect id="XMLID_172_" x="304.1" y="527" class="st1" width="98" height="98"/>
	<rect id="XMLID_114_" x="402.1" y="527" class="st1" width="98" height="98"/>
	<rect id="XMLID_116_" x="402.1" y="429" class="st1" width="98" height="98"/>
	<rect id="XMLID_34_" x="304.1" y="429" class="st1" width="98" height="98"/>
	<rect id="XMLID_36_" x="206" y="429" class="st1" width="98" height="98"/>
	<rect id="XMLID_32_" x="108" y="429" class="st1" width="98" height="98"/>
	<rect id="XMLID_30_" x="132.4" y="453.4" class="st1" width="49.3" height="49.3"/>
	<rect id="XMLID_31_" x="230.4" y="453.4" class="st1" width="49.3" height="49.3"/>
	<rect id="XMLID_33_" x="328.4" y="453.4" class="st1" width="49.3" height="49.3"/>
	<rect id="XMLID_35_" x="426.4" y="453.4" class="st1" width="49.3" height="49.3"/>
	<rect id="XMLID_72_" x="10" y="429" class="st1" width="98" height="98"/>
	<rect id="XMLID_107_" x="34.4" y="453.4" class="st1" width="49.3" height="49.3"/>
	<rect id="XMLID_52_" x="132.4" y="551.4" class="st1" width="49.3" height="49.3"/>
	<rect id="XMLID_50_" x="230.4" y="551.4" class="st1" width="49.3" height="49.3"/>
	<rect id="XMLID_44_" x="328.4" y="551.4" class="st1" width="49.3" height="49.3"/>
	<rect id="XMLID_41_" x="426.4" y="551.4" class="st1" width="49.3" height="49.3"/>
	<rect id="XMLID_37_" x="34.4" y="551.4" class="st1" width="49.3" height="49.3"/>
</g>
<g id="XMLID_39_">
	<g id="XMLID_3_">
		<path id="XMLID_147_" class="st2" d="M-113.7,314.5h-11.9c-5.6,0-10.1-4.5-10.1-10.1v-26.2c0-5.6,4.5-10.1,10.1-10.1h26.2
			c5.6,0,10.1,4.5,10.1,10.1v18c0,0.6-0.5,1-1,1s-1-0.5-1-1v-18c0-4.4-3.6-8-8-8h-26.3c-4.4,0-8,3.6-8,8v26.2c0,4.4,3.6,8,8,8h11.9
			c0.6,0,1,0.5,1,1S-113.2,314.5-113.7,314.5z"/>
	</g>
	<g id="XMLID_2_">
		<path id="XMLID_146_" class="st2" d="M-96.6,280.5h-15.9c-0.6,0-1-0.5-1-1s0.5-1,1-1h15.9c0.6,0,1,0.5,1,1S-96.1,280.5-96.6,280.5
			z"/>
	</g>
	<g id="XMLID_5_">
		<path id="XMLID_145_" class="st2" d="M-96.6,292.3h-15.9c-0.6,0-1-0.5-1-1s0.5-1,1-1h15.9c0.6,0,1,0.5,1,1S-96.1,292.3-96.6,292.3
			z"/>
	</g>
	<g id="XMLID_7_">
		<path id="XMLID_144_" class="st2" d="M-89.4,317.2c-0.3,0-0.6-0.1-0.8-0.3l-5.5-5.9c-0.4-0.4-0.4-1.1,0.1-1.5
			c0.4-0.4,1.1-0.4,1.5,0.1l5.5,5.9c0.4,0.4,0.4,1.1-0.1,1.5C-88.9,317.1-89.2,317.2-89.4,317.2z"/>
	</g>
	<g id="XMLID_4_">
		<path id="XMLID_141_" class="st2" d="M-100.7,313.7c-5.2,0-9.5-4.2-9.5-9.5s4.2-9.5,9.5-9.5s9.5,4.2,9.5,9.5
			S-95.5,313.7-100.7,313.7z M-100.7,296.8c-4.1,0-7.4,3.3-7.4,7.4s3.3,7.4,7.4,7.4s7.4-3.3,7.4-7.4S-96.7,296.8-100.7,296.8z"/>
	</g>
	<g id="XMLID_6_">
		<path id="XMLID_140_" class="st2" d="M-124.2,283.3l-4.5-3c-0.5-0.3-0.6-1-0.3-1.4c0.3-0.5,1-0.6,1.4-0.3l3,2l5.4-6
			c0.4-0.4,1-0.5,1.5-0.1c0.4,0.4,0.5,1,0.1,1.5L-124.2,283.3z"/>
	</g>
	<g id="XMLID_9_">
		<path id="XMLID_139_" class="st2" d="M-124.2,295.2l-4.5-3c-0.5-0.3-0.6-1-0.3-1.4c0.3-0.5,1-0.6,1.4-0.3l3,2l5.4-6
			c0.4-0.4,1-0.5,1.5-0.1c0.4,0.4,0.5,1,0.1,1.5L-124.2,295.2z"/>
	</g>
	<g id="XMLID_10_">
		<path id="XMLID_137_" class="st2" d="M-124.2,308l-4.5-3c-0.5-0.3-0.6-1-0.3-1.4c0.3-0.5,1-0.6,1.4-0.3l3,2l5.4-6
			c0.4-0.4,1-0.5,1.5-0.1c0.4,0.4,0.5,1,0.1,1.5L-124.2,308z"/>
	</g>
</g>
<g id="XMLID_38_">
	<g id="XMLID_11_">
		<path id="XMLID_215_" class="st2" d="M-43.5,311.6c-8.9,0-16.1-7.2-16.1-16.1s7.2-16.1,16.1-16.1s16.1,7.2,16.1,16.1
			S-34.5,311.6-43.5,311.6z M-43.5,281.5c-7.7,0-14,6.3-14,14s6.3,14,14,14s14-6.3,14-14C-29.3,287.8-35.6,281.5-43.5,281.5z"/>
	</g>
	<g id="XMLID_21_">
		<path id="XMLID_214_" class="st2" d="M-58,280.8l-1.4-1.5c0.3-0.3,0.7-0.7,1-1l1.3,1.5C-57.2,280.2-57.6,280.6-58,280.8z"/>
	</g>
	<g id="XMLID_22_">
		<path id="XMLID_213_" class="st2" d="M-59.7,282.7l-1.6-1.3l0.1-0.1c0.3-0.3,0.7-0.8,0.9-1.1l1.5,1.3c-0.2,0.2-0.6,0.7-0.8,1
			L-59.7,282.7z"/>
	</g>
	<g id="XMLID_23_">
		<path id="XMLID_212_" class="st2" d="M-61.3,285.1L-63,284c0.1-0.1,0.2-0.3,0.3-0.5c0.2-0.3,0.4-0.7,0.5-0.9l1.7,1.1
			c-0.1,0.1-0.3,0.5-0.4,0.7C-61.1,284.8-61.2,285-61.3,285.1z"/>
	</g>
	<g id="XMLID_24_">
		<path id="XMLID_211_" class="st2" d="M-62.5,287.5l-1.9-0.8c0.1-0.3,0.4-1,0.6-1.3l1.8,0.9C-62,286.6-62.3,287.2-62.5,287.5z"/>
	</g>
	<g id="XMLID_25_">
		<path id="XMLID_210_" class="st2" d="M-63.3,290l-2-0.5c0.1-0.4,0.3-0.9,0.4-1.3l1.9,0.7C-63.1,289.2-63.2,289.6-63.3,290z"/>
	</g>
	<g id="XMLID_20_">
		<path id="XMLID_209_" class="st2" d="M-63.8,292.7l-2-0.3v-0.3c0.1-0.4,0.1-0.8,0.2-1.2l2,0.4c-0.1,0.3-0.1,0.7-0.2,1
			C-63.8,292.3-63.8,292.7-63.8,292.7z"/>
	</g>
	<g id="XMLID_12_">
		<path id="XMLID_208_" class="st2" d="M-43.5,318.3c-12.5,0-22.7-10.2-22.7-22.7c0-0.6,0.5-1,1-1s1,0.5,1,1
			c0,11.4,9.3,20.7,20.7,20.7s20.7-9.3,20.7-20.7s-9.3-20.7-20.7-20.7c-0.6,0-1-0.5-1-1s0.5-1,1-1c12.5,0,22.7,10.2,22.7,22.7
			C-20.8,308.1-30.8,318.3-43.5,318.3z"/>
	</g>
	<g id="XMLID_8_">
		<polygon id="XMLID_207_" class="st2" points="-40.7,278.2 -44.7,273.8 -40.7,269.4 -39.2,270.8 -42,273.8 -39.2,276.9 		"/>
	</g>
	<g id="XMLID_15_">
		<rect id="XMLID_206_" x="-44.5" y="282.6" class="st2" width="2" height="1.6"/>
	</g>
	<g id="XMLID_19_">
		<polygon id="XMLID_205_" class="st2" points="-40.1,300.1 -44.5,295.8 -44.5,286.8 -42.5,286.8 -42.5,295 -38.7,298.6 		"/>
	</g>
	<g id="XMLID_16_">
		<rect id="XMLID_204_" x="-32.6" y="294.6" class="st2" width="2" height="1.6"/>
	</g>
	<g id="XMLID_17_">
		<rect id="XMLID_203_" x="-44.5" y="306.5" class="st2" width="2" height="1.6"/>
	</g>
	<g id="XMLID_18_">
		<rect id="XMLID_202_" x="-56.6" y="294.6" class="st2" width="2" height="1.6"/>
	</g>
</g>
<g id="XMLID_1_">
	<g id="XMLID_42_">
		<path id="XMLID_199_" class="st2" d="M39.6,317.5H11.3c-3.9,0-5.2-3.9-5.4-5.9v-0.1l2.9-32.9h33.3l2.9,32.9v0.1
			C44.8,313.6,43.5,317.5,39.6,317.5z M7.8,311.5c0.1,0.6,0.5,4,3.4,4h28.3c2.9,0,3.3-3.5,3.4-4l-2.6-30.9H10.5L7.8,311.5z"/>
	</g>
	<g id="XMLID_40_">
		<path id="XMLID_198_" class="st2" d="M34.3,286.2c-0.5,0-1-0.4-1-1v-6.5c0-4.4-3.6-7.9-7.9-7.9c-4.4,0-7.9,3.6-7.9,7.9v6.5
			c0,0.5-0.4,1-1,1c-0.5,0-1-0.4-1-1v-6.5c0-5.5,4.4-9.9,9.9-9.9s9.9,4.4,9.9,9.9v6.5C35.3,285.8,34.9,286.2,34.3,286.2z"/>
	</g>
</g>
<g id="XMLID_45_">
	<g id="XMLID_43_">
		<path id="XMLID_195_" class="st2" d="M93.1,318c-0.8,0-1.5-0.2-2.2-0.7l-1.6-1c-0.5-0.3-1-0.4-1.5-0.3l-1.9,0.4
			c-1.6,0.4-3.3-0.3-4.3-1.7l-1.1-1.5c-0.3-0.4-0.8-0.7-1.3-0.8l-1.9-0.3c-1.7-0.3-3-1.6-3.3-3.2l-0.4-1.8c-0.1-0.5-0.4-1-0.9-1.3
			l-1.6-1c-1.4-0.9-2.2-2.6-1.8-4.2l0.3-1.8c0.1-0.5,0-1.1-0.3-1.5l-1.1-1.5c-1-1.4-1-3.2-0.1-4.6l1-1.6c0.3-0.4,0.4-1,0.3-1.5
			l-0.4-1.8c-0.4-1.6,0.3-3.3,1.7-4.3l1.5-1.1c0.4-0.3,0.7-0.8,0.8-1.3l0.3-1.8c0.3-1.6,1.6-2.9,3.2-3.3l1.9-0.4
			c0.5-0.1,1-0.4,1.3-0.9l1-1.6c0.9-1.4,2.6-2.1,4.2-1.8l1.9,0.3c0.5,0.1,1.1,0,1.5-0.3l0,0l1.6-1.1c1.4-0.9,3.2-1,4.6-0.1l1.6,1
			c0.5,0.3,1,0.4,1.5,0.3l1.9-0.4c1.6-0.4,3.3,0.3,4.3,1.7l1.1,1.5c0.3,0.4,0.8,0.7,1.3,0.8l1.9,0.3c1.7,0.3,3,1.6,3.3,3.2l0.4,1.8
			c0.1,0.5,0.4,1,0.9,1.3l1.6,1c1.4,0.9,2.2,2.6,1.8,4.2l-0.3,1.8c-0.1,0.5,0,1.1,0.3,1.5l1.1,1.6c1,1.4,1,3.2,0.1,4.6l-1,1.6
			c-0.3,0.4-0.4,1-0.3,1.5l0.4,1.8c0.4,1.6-0.3,3.3-1.7,4.3l-1.5,1.1c-0.4,0.3-0.7,0.8-0.8,1.3l-0.3,1.8c-0.3,1.6-1.6,2.9-3.2,3.3
			l-1.9,0.4c-0.5,0.1-1,0.4-1.3,0.9l-1,1.6c-0.9,1.4-2.6,2.1-4.2,1.8l-1.9-0.3c-0.5-0.1-1.1,0-1.5,0.3l-1.6,1.1
			C94.8,317.8,94,318,93.1,318z M88.3,313.9c0.8,0,1.6,0.2,2.2,0.7l1.6,1c0.7,0.4,1.6,0.4,2.2,0l1.6-1.1c0.9-0.6,2-0.9,3.1-0.7
			l1.9,0.3c0.8,0.1,1.6-0.2,2.1-0.9l1-1.6c0.6-0.9,1.5-1.6,2.6-1.8l1.9-0.4c0.8-0.2,1.4-0.8,1.6-1.6l0.3-1.8c0.2-1.1,0.8-2,1.7-2.7
			l1.5-1.1c0.7-0.5,1-1.3,0.8-2.1l-0.4-1.8c-0.2-1.1,0-2.2,0.6-3.1l1-1.6c0.4-0.7,0.4-1.6,0-2.3l-1.1-1.5c-0.6-0.9-0.9-2-0.7-3.1
			l0.3-1.8c0.1-0.8-0.2-1.6-0.9-2.1l-1.6-1c-0.9-0.6-1.6-1.5-1.8-2.6l-0.4-1.8c-0.2-0.8-0.8-1.4-1.6-1.6l-1.9-0.3
			c-1.1-0.2-2-0.8-2.7-1.7l-1.1-1.5c-0.5-0.7-1.3-1-2.1-0.8l-1.9,0.4c-1.1,0.2-2.2,0-3.1-0.6l-1.6-1c-0.7-0.4-1.6-0.4-2.2,0
			l-1.6,1.1c-0.9,0.6-2,0.9-3.1,0.7l-1.9-0.3c-0.8-0.1-1.6,0.2-2.1,0.9l-1,1.6c-0.6,0.9-1.5,1.6-2.6,1.8l-1.9,0.4
			c-0.8,0.2-1.4,0.8-1.6,1.6l-0.3,1.8c-0.2,1.1-0.8,2-1.7,2.7l-1.5,1.1c-0.7,0.5-1,1.3-0.8,2.1l0.4,1.8c0.2,1.1,0,2.2-0.6,3.1
			l-1,1.6c-0.4,0.7-0.4,1.6,0,2.3l1.1,1.5c0.6,0.9,0.9,2,0.7,3.1l-0.3,1.8c-0.1,0.8,0.2,1.6,0.9,2.1l1.6,1c0.9,0.6,1.6,1.5,1.8,2.6
			l0.4,1.8c0.2,0.8,0.8,1.4,1.6,1.6l1.9,0.3c1.1,0.2,2,0.8,2.7,1.7l1.1,1.5c0.5,0.7,1.3,1,2.1,0.8l1.9-0.4
			C87.6,314,88,313.9,88.3,313.9z"/>
	</g>
	<g id="XMLID_46_">
		<path id="XMLID_194_" class="st2" d="M86.9,305.4c-0.2,0-0.3,0-0.5-0.1c-0.5-0.3-0.7-0.9-0.5-1.4l11.4-22.8
			c0.3-0.5,0.9-0.7,1.4-0.5c0.5,0.3,0.7,0.9,0.5,1.4l-11.4,22.8C87.6,305.2,87.3,305.4,86.9,305.4z"/>
	</g>
	<g id="XMLID_47_">
		<path id="XMLID_191_" class="st2" d="M85.9,294c-2.5,0-4.1-1.4-4.1-3.6v-5.2c0-2.2,1.7-3.6,4.1-3.6s4.1,1.4,4.1,3.6v5.3
			C90,292.6,88.3,294,85.9,294z M85.9,283.7c-0.6,0-2,0.1-2,1.5v5.3c0,1.3,1.4,1.5,2,1.5s2-0.1,2-1.5v-5.3
			C87.9,283.8,86.5,283.7,85.9,283.7z"/>
	</g>
	<g id="XMLID_48_">
		<path id="XMLID_188_" class="st2" d="M99.1,304.4c-2.5,0-4.1-1.4-4.1-3.6v-5.3c0-2.2,1.7-3.6,4.1-3.6c2.5,0,4.1,1.4,4.1,3.6v5.3
			C103.4,302.9,101.6,304.4,99.1,304.4z M99.1,294c-0.6,0-2,0.1-2,1.5v5.3c0,1.3,1.4,1.5,2,1.5s2-0.1,2-1.5v-5.3
			C101.3,294.2,99.8,294,99.1,294z"/>
	</g>
</g>
<g id="XMLID_126_">
	<g id="XMLID_131_">
		<path id="XMLID_132_" class="st3" d="M-110.8,369.6c-5.1,0-9.3-4.2-9.3-9.3s4.2-9.3,9.3-9.3s9.3,4.2,9.3,9.3
			S-105.7,369.6-110.8,369.6z M-110.8,353.2c-4,0-7.2,3.2-7.2,7.2s3.2,7.2,7.2,7.2s7.2-3.2,7.2-7.2S-106.8,353.2-110.8,353.2z"/>
	</g>
	<g id="XMLID_127_">
		<path id="XMLID_128_" class="st3" d="M-107.9,385.1h-5.7c-1.5,0-2.7-1.2-2.7-2.7V379c-0.6-0.2-1.1-0.3-1.7-0.6
			c-0.7-0.3-1.3-0.6-2-0.9l-2.4,2.4c-1,1-2.8,1-3.9,0l-4-4c-0.5-0.5-0.8-1.2-0.8-1.9c0-0.7,0.3-1.4,0.8-1.9l2.4-2.4
			c-0.3-0.5-0.5-1-0.8-1.6c-0.3-0.7-0.5-1.3-0.7-2h-3.4c-1.5,0-2.7-1.2-2.7-2.7v-5.7c0-1.5,1.2-2.7,2.7-2.7h3.4
			c0.2-0.6,0.4-1.1,0.6-1.7c0.2-0.5,0.6-1.3,1-2l-2.4-2.4c-0.5-0.5-0.8-1.2-0.8-1.9s0.3-1.4,0.8-1.9l4-4c1-1,2.8-1,3.9,0l2.4,2.4
			c0.6-0.3,1.2-0.6,2-0.9c0.6-0.2,1.1-0.4,1.7-0.6v-3.4c0-1.5,1.2-2.7,2.7-2.7h5.7c1.5,0,2.7,1.2,2.7,2.7v3.4c0.7,0.2,1.3,0.4,2,0.7
			c0.6,0.3,1.1,0.5,1.6,0.8l2.4-2.4c1-1,2.8-1,3.9,0l4,4c0.5,0.5,0.8,1.2,0.8,1.9s-0.3,1.4-0.8,1.9l-2.4,2.4c0.3,0.6,0.6,1.2,0.9,2
			c0.2,0.6,0.4,1.1,0.6,1.7h3.4c1.5,0,2.7,1.2,2.7,2.7v5.7c0,1.5-1.2,2.7-2.7,2.7h-3.4c-0.2,0.6-0.4,1.1-0.7,1.8
			c-0.3,0.7-0.5,1.1-0.8,1.7l2.4,2.4c0.5,0.5,0.8,1.2,0.8,1.9c0,0.7-0.3,1.4-0.8,1.9l-4,4c-1,1-2.8,1-3.9,0l-2.4-2.4
			c-0.5,0.3-1,0.5-1.6,0.8c-0.7,0.3-1.3,0.5-2,0.7v3.4C-105.1,383.9-106.4,385.1-107.9,385.1z M-120.3,374.9l0.7,0.4
			c0.8,0.5,1.5,0.8,2.4,1.2c0.8,0.3,1.4,0.5,2.2,0.7l0.8,0.2v5c0,0.3,0.3,0.6,0.6,0.6h5.7c0.3,0,0.6-0.3,0.6-0.6v-5l0.8-0.2
			c0.9-0.2,1.6-0.5,2.5-0.9c0.8-0.3,1.4-0.6,2.1-1.1l0.7-0.4l3.5,3.5c0.2,0.2,0.6,0.2,0.9,0l4-4c0.1-0.1,0.2-0.3,0.2-0.4
			c0-0.2-0.1-0.3-0.2-0.4l-3.6-3.6l0.4-0.7c0.5-0.8,0.7-1.3,1.1-2.2c0.4-0.8,0.5-1.4,0.8-2.3l0.2-0.8h5c0.3,0,0.6-0.3,0.6-0.6v-5.7
			c0-0.3-0.3-0.6-0.6-0.6h-5l-0.2-0.8c-0.2-0.8-0.4-1.4-0.7-2.2c-0.4-0.9-0.7-1.6-1.2-2.4l-0.4-0.7l3.6-3.6c0.1-0.1,0.2-0.3,0.2-0.4
			s-0.1-0.3-0.2-0.4l-4-4c-0.2-0.2-0.6-0.2-0.9,0l-3.5,3.5l-0.7-0.4c-0.7-0.4-1.3-0.7-2.1-1.1c-0.9-0.4-1.6-0.6-2.5-0.9l-0.8-0.2v-5
			c0-0.3-0.3-0.6-0.6-0.6h-5.7c-0.3,0-0.6,0.3-0.6,0.6v5l-0.8,0.2c-0.8,0.2-1.4,0.4-2.2,0.7c-0.9,0.4-1.6,0.7-2.4,1.2l-0.7,0.4
			l-3.6-3.6c-0.2-0.2-0.6-0.2-0.9,0l-4,4c-0.1,0.1-0.2,0.3-0.2,0.4s0.1,0.3,0.2,0.4l3.5,3.5l-0.4,0.7c-0.5,0.8-1,1.9-1.2,2.5
			c-0.3,0.8-0.5,1.5-0.7,2.2l-0.2,0.8h-5c-0.3,0-0.6,0.3-0.6,0.6v5.7c0,0.3,0.3,0.6,0.6,0.6h5l0.2,0.8c0.2,0.9,0.5,1.6,0.9,2.5l0,0
			c0.3,0.8,0.6,1.4,1.1,2.1l0.4,0.7l-3.5,3.5c-0.1,0.1-0.2,0.3-0.2,0.4s0.1,0.3,0.2,0.4l4,4c0.2,0.2,0.6,0.2,0.9,0L-120.3,374.9z"/>
	</g>
</g>
<g id="XMLID_122_">
	<path id="XMLID_123_" class="st2" d="M-47.3,383.6c-0.2,0-0.4,0-0.5-0.1c-0.3-0.2-0.5-0.6-0.5-0.9v-20.3l-18.6-18.8
		c-0.3-0.3-0.4-0.8-0.2-1.2c0.2-0.4,0.6-0.7,1-0.7h47.2c0.4,0,0.8,0.3,1,0.7c0.2,0.4,0.1,0.9-0.2,1.2l-18.8,19v15
		c0,0.4-0.2,0.8-0.6,0.9l-9.1,5.2C-47,383.5-47.1,383.6-47.3,383.6z M-63.6,343.6l17.1,17.3c0.2,0.2,0.3,0.5,0.3,0.8v18.9l6.9-3.9
		v-14.8c0-0.3,0.1-0.6,0.3-0.8l17.3-17.5H-63.6z"/>
</g>
<g id="XMLID_106_">
	<g id="XMLID_104_">
		<path id="XMLID_110_" class="st2" d="M87.6,373.3c-9.7,0-17.6-7.9-17.6-17.6s7.9-17.6,17.6-17.6s17.6,7.9,17.6,17.6
			S97.4,373.3,87.6,373.3z M87.6,340.6c-8.3,0-15.1,6.8-15.1,15.1c0,8.3,6.8,15.1,15.1,15.1s15.1-6.8,15.1-15.1
			C102.6,347.3,96,340.6,87.6,340.6z"/>
	</g>
	<g id="XMLID_105_">
		<path id="XMLID_109_" class="st2" d="M114.6,385c-0.3,0-0.7-0.1-0.9-0.4l-14.9-16.1c-0.5-0.5-0.4-1.3,0.1-1.8s1.3-0.4,1.8,0.1
			l14.9,16.1c0.5,0.5,0.4,1.3-0.1,1.8C115.3,384.9,114.9,385,114.6,385z"/>
	</g>
</g>
<g id="XMLID_158_">
	<path id="XMLID_165_" class="st2" d="M167.9,347.6v-9.4c0-2.1-1.7-3.8-3.8-3.8h-22.3c-2.1,0-3.8,1.7-3.8,3.8v44
		c0,2.1,1.7,3.8,3.8,3.8h22.3c2.1,0,3.8-1.7,3.8-3.8v-10.4h-2.4v7.5h-25.1v-39.1h25.1v7.5h2.4V347.6z M153,380.6
		c0.9,0,1.6,0.7,1.6,1.6s-0.7,1.6-1.6,1.6s-1.6-0.7-1.6-1.6C151.4,381.3,152.1,380.6,153,380.6z M157,337.6c0,0.2-0.1,0.3-0.3,0.3
		h-7.4c-0.2,0-0.3-0.1-0.3-0.3v-0.1c0-0.2,0.1-0.3,0.3-0.3h7.4C156.9,337.2,157,337.3,157,337.6L157,337.6L157,337.6z"/>
	<polygon id="XMLID_159_" class="st2" points="182.4,344.6 180.7,344.6 179.4,344.6 174.4,367.3 154.5,367.3 151.2,352.8 
		174.4,352.8 175.1,349.8 147.6,349.8 152.1,370.3 173.8,370.3 176.7,370.3 181.8,347.5 186.1,347.5 186.1,344.6 	"/>
	<circle id="XMLID_157_" class="st2" cx="157.4" cy="374.1" r="2.8"/>
	<circle id="XMLID_163_" class="st2" cx="171.8" cy="374.1" r="2.8"/>
</g>
<polygon id="XMLID_168_" class="st3" points="150.6,293 172.9,270.7 170.7,268.5 146.2,293 170.7,317.5 172.9,315.3 "/>
<g id="XMLID_143_">
	<g id="XMLID_167_">
		<path id="XMLID_169_" class="st4" d="M-113.7,450.5h-11.9c-5.6,0-10.1-4.5-10.1-10.1v-26.2c0-5.6,4.5-10.1,10.1-10.1h26.2
			c5.6,0,10.1,4.5,10.1,10.1v18c0,0.6-0.5,1-1,1s-1-0.5-1-1v-18c0-4.4-3.6-8-8-8h-26.3c-4.4,0-8,3.6-8,8v26.2c0,4.4,3.6,8,8,8h11.9
			c0.6,0,1,0.5,1,1S-113.2,450.5-113.7,450.5z"/>
	</g>
	<g id="XMLID_164_">
		<path id="XMLID_166_" class="st4" d="M-96.6,416.5h-15.9c-0.6,0-1-0.5-1-1s0.5-1,1-1h15.9c0.6,0,1,0.5,1,1S-96.1,416.5-96.6,416.5
			z"/>
	</g>
	<g id="XMLID_161_">
		<path id="XMLID_162_" class="st4" d="M-96.6,428.3h-15.9c-0.6,0-1-0.5-1-1s0.5-1,1-1h15.9c0.6,0,1,0.5,1,1S-96.1,428.3-96.6,428.3
			z"/>
	</g>
	<g id="XMLID_156_">
		<path id="XMLID_160_" class="st4" d="M-89.4,453.2c-0.3,0-0.6-0.1-0.8-0.3l-5.5-5.9c-0.4-0.4-0.4-1.1,0.1-1.5
			c0.4-0.4,1.1-0.4,1.5,0.1l5.5,5.9c0.4,0.4,0.4,1.1-0.1,1.5C-88.9,453.1-89.2,453.2-89.4,453.2z"/>
	</g>
	<g id="XMLID_154_">
		<path id="XMLID_155_" class="st4" d="M-100.7,449.7c-5.2,0-9.5-4.2-9.5-9.5s4.2-9.5,9.5-9.5s9.5,4.2,9.5,9.5
			S-95.5,449.7-100.7,449.7z M-100.7,432.8c-4.1,0-7.4,3.3-7.4,7.4s3.3,7.4,7.4,7.4s7.4-3.3,7.4-7.4S-96.7,432.8-100.7,432.8z"/>
	</g>
	<g id="XMLID_152_">
		<path id="XMLID_153_" class="st4" d="M-124.2,419.3l-4.5-3c-0.5-0.3-0.6-1-0.3-1.4c0.3-0.5,1-0.6,1.4-0.3l3,2l5.4-6
			c0.4-0.4,1-0.5,1.5-0.1c0.4,0.4,0.5,1,0.1,1.5L-124.2,419.3z"/>
	</g>
	<g id="XMLID_150_">
		<path id="XMLID_151_" class="st4" d="M-124.2,431.2l-4.5-3c-0.5-0.3-0.6-1-0.3-1.4c0.3-0.5,1-0.6,1.4-0.3l3,2l5.4-6
			c0.4-0.4,1-0.5,1.5-0.1c0.4,0.4,0.5,1,0.1,1.5L-124.2,431.2z"/>
	</g>
	<g id="XMLID_148_">
		<path id="XMLID_149_" class="st4" d="M-124.2,444l-4.5-3c-0.5-0.3-0.6-1-0.3-1.4c0.3-0.5,1-0.6,1.4-0.3l3,2l5.4-6
			c0.4-0.4,1-0.5,1.5-0.1c0.4,0.4,0.5,1,0.1,1.5L-124.2,444z"/>
	</g>
</g>
<g id="XMLID_93_">
	<g id="XMLID_138_">
		<path id="XMLID_142_" class="st4" d="M-43.5,447.6c-8.9,0-16.1-7.2-16.1-16.1s7.2-16.1,16.1-16.1s16.1,7.2,16.1,16.1
			S-34.5,447.6-43.5,447.6z M-43.5,417.5c-7.7,0-14,6.3-14,14s6.3,14,14,14s14-6.3,14-14C-29.3,423.8-35.6,417.5-43.5,417.5z"/>
	</g>
	<g id="XMLID_135_">
		<path id="XMLID_136_" class="st4" d="M-58,416.8l-1.4-1.5c0.3-0.3,0.7-0.7,1-1l1.3,1.5C-57.2,416.2-57.6,416.6-58,416.8z"/>
	</g>
	<g id="XMLID_133_">
		<path id="XMLID_134_" class="st4" d="M-59.7,418.7l-1.6-1.3l0.1-0.1c0.3-0.3,0.7-0.8,0.9-1.1l1.5,1.3c-0.2,0.2-0.6,0.7-0.8,1
			L-59.7,418.7z"/>
	</g>
	<g id="XMLID_129_">
		<path id="XMLID_130_" class="st4" d="M-61.3,421.1L-63,420c0.1-0.1,0.2-0.3,0.3-0.5c0.2-0.3,0.4-0.7,0.5-0.9l1.7,1.1
			c-0.1,0.1-0.3,0.5-0.4,0.7C-61.1,420.8-61.2,421-61.3,421.1z"/>
	</g>
	<g id="XMLID_124_">
		<path id="XMLID_125_" class="st4" d="M-62.5,423.5l-1.9-0.8c0.1-0.3,0.4-1,0.6-1.3l1.8,0.9C-62,422.6-62.3,423.2-62.5,423.5z"/>
	</g>
	<g id="XMLID_120_">
		<path id="XMLID_121_" class="st4" d="M-63.3,426l-2-0.5c0.1-0.4,0.3-0.9,0.4-1.3l1.9,0.7C-63.1,425.2-63.2,425.6-63.3,426z"/>
	</g>
	<g id="XMLID_115_">
		<path id="XMLID_117_" class="st4" d="M-63.8,428.7l-2-0.3v-0.3c0.1-0.4,0.1-0.8,0.2-1.2l2,0.4c-0.1,0.3-0.1,0.7-0.2,1
			C-63.8,428.3-63.8,428.7-63.8,428.7z"/>
	</g>
	<g id="XMLID_112_">
		<path id="XMLID_113_" class="st4" d="M-43.5,454.3c-12.5,0-22.7-10.2-22.7-22.7c0-0.6,0.5-1,1-1s1,0.5,1,1
			c0,11.4,9.3,20.7,20.7,20.7s20.7-9.3,20.7-20.7c0-11.4-9.3-20.7-20.7-20.7c-0.6,0-1-0.5-1-1s0.5-1,1-1c12.5,0,22.7,10.2,22.7,22.7
			C-20.7,444.1-30.8,454.3-43.5,454.3z"/>
	</g>
	<g id="XMLID_108_">
		<polygon id="XMLID_111_" class="st4" points="-40.7,414.2 -44.7,409.8 -40.7,405.4 -39.2,406.8 -42,409.8 -39.2,412.9 		"/>
	</g>
	<g id="XMLID_102_">
		<rect id="XMLID_103_" x="-44.5" y="418.6" class="st4" width="2" height="1.6"/>
	</g>
	<g id="XMLID_100_">
		<polygon id="XMLID_101_" class="st4" points="-40.1,436.1 -44.5,431.8 -44.5,422.8 -42.5,422.8 -42.5,431 -38.7,434.6 		"/>
	</g>
	<g id="XMLID_98_">
		<rect id="XMLID_99_" x="-32.6" y="430.6" class="st4" width="2" height="1.6"/>
	</g>
	<g id="XMLID_96_">
		<rect id="XMLID_97_" x="-44.5" y="442.5" class="st4" width="2" height="1.6"/>
	</g>
	<g id="XMLID_94_">
		<rect id="XMLID_95_" x="-56.6" y="430.6" class="st4" width="2" height="1.6"/>
	</g>
</g>
<g id="XMLID_88_">
	<g id="XMLID_91_">
		<path id="XMLID_92_" class="st4" d="M39.6,453.5H11.3c-3.9,0-5.2-3.9-5.4-5.9v-0.1l2.9-32.9h33.3l2.9,32.9v0.1
			C44.8,449.6,43.5,453.5,39.6,453.5z M7.8,447.5c0.1,0.6,0.5,4,3.4,4h28.3c2.9,0,3.3-3.5,3.4-4l-2.6-30.9H10.5L7.8,447.5z"/>
	</g>
	<g id="XMLID_89_">
		<path id="XMLID_90_" class="st4" d="M34.3,422.2c-0.5,0-1-0.4-1-1v-6.5c0-4.4-3.6-7.9-7.9-7.9c-4.4,0-7.9,3.6-7.9,7.9v6.5
			c0,0.5-0.4,1-1,1c-0.5,0-1-0.4-1-1v-6.5c0-5.5,4.4-9.9,9.9-9.9s9.9,4.4,9.9,9.9v6.5C35.3,421.8,34.9,422.2,34.3,422.2z"/>
	</g>
</g>
<g id="XMLID_79_">
	<g id="XMLID_86_">
		<path id="XMLID_87_" class="st4" d="M93.1,454c-0.8,0-1.5-0.2-2.2-0.7l-1.6-1c-0.5-0.3-1-0.4-1.5-0.3l-1.9,0.4
			c-1.6,0.4-3.3-0.3-4.3-1.7l-1.1-1.5c-0.3-0.4-0.8-0.7-1.3-0.8l-1.9-0.3c-1.7-0.3-3-1.6-3.3-3.2l-0.4-1.8c-0.1-0.5-0.4-1-0.9-1.3
			l-1.6-1c-1.4-0.9-2.2-2.6-1.8-4.2l0.3-1.8c0.1-0.5,0-1.1-0.3-1.5l-1.1-1.5c-1-1.4-1-3.2-0.1-4.6l1-1.6c0.3-0.4,0.4-1,0.3-1.5
			l-0.4-1.8c-0.4-1.6,0.3-3.3,1.7-4.3l1.5-1.1c0.4-0.3,0.7-0.8,0.8-1.3l0.3-1.8c0.3-1.6,1.6-2.9,3.2-3.3l1.9-0.4
			c0.5-0.1,1-0.4,1.3-0.9l1-1.6c0.9-1.4,2.6-2.1,4.2-1.8l1.9,0.3c0.5,0.1,1.1,0,1.5-0.3l0,0l1.6-1.1c1.4-0.9,3.2-1,4.6-0.1l1.6,1
			c0.5,0.3,1,0.4,1.5,0.3l1.9-0.4c1.6-0.4,3.3,0.3,4.3,1.7l1.1,1.5c0.3,0.4,0.8,0.7,1.3,0.8l1.9,0.3c1.7,0.3,3,1.6,3.3,3.2l0.4,1.8
			c0.1,0.5,0.4,1,0.9,1.3l1.6,1c1.4,0.9,2.2,2.6,1.8,4.2l-0.3,1.8c-0.1,0.5,0,1.1,0.3,1.5l1.1,1.6c1,1.4,1,3.2,0.1,4.6l-1,1.6
			c-0.3,0.4-0.4,1-0.3,1.5l0.4,1.8c0.4,1.6-0.3,3.3-1.7,4.3l-1.5,1.1c-0.4,0.3-0.7,0.8-0.8,1.3l-0.3,1.8c-0.3,1.6-1.6,2.9-3.2,3.3
			l-1.9,0.4c-0.5,0.1-1,0.4-1.3,0.9l-1,1.6c-0.9,1.4-2.6,2.1-4.2,1.8l-1.9-0.3c-0.5-0.1-1.1,0-1.5,0.3l-1.6,1.1
			C94.8,453.8,94,454,93.1,454z M88.3,449.9c0.8,0,1.6,0.2,2.2,0.7l1.6,1c0.7,0.4,1.6,0.4,2.2,0l1.6-1.1c0.9-0.6,2-0.9,3.1-0.7
			l1.9,0.3c0.8,0.1,1.6-0.2,2.1-0.9l1-1.6c0.6-0.9,1.5-1.6,2.6-1.8l1.9-0.4c0.8-0.2,1.4-0.8,1.6-1.6l0.3-1.8c0.2-1.1,0.8-2,1.7-2.7
			l1.5-1.1c0.7-0.5,1-1.3,0.8-2.1l-0.4-1.8c-0.2-1.1,0-2.2,0.6-3.1l1-1.6c0.4-0.7,0.4-1.6,0-2.3l-1.1-1.5c-0.6-0.9-0.9-2-0.7-3.1
			l0.3-1.8c0.1-0.8-0.2-1.6-0.9-2.1l-1.6-1c-0.9-0.6-1.6-1.5-1.8-2.6l-0.4-1.8c-0.2-0.8-0.8-1.4-1.6-1.6l-1.9-0.3
			c-1.1-0.2-2-0.8-2.7-1.7l-1.1-1.5c-0.5-0.7-1.3-1-2.1-0.8l-1.9,0.4c-1.1,0.2-2.2,0-3.1-0.6l-1.6-1c-0.7-0.4-1.6-0.4-2.2,0
			l-1.6,1.1c-0.9,0.6-2,0.9-3.1,0.7l-1.9-0.3c-0.8-0.1-1.6,0.2-2.1,0.9l-1,1.6c-0.6,0.9-1.5,1.6-2.6,1.8l-1.9,0.4
			c-0.8,0.2-1.4,0.8-1.6,1.6l-0.3,1.8c-0.2,1.1-0.8,2-1.7,2.7l-1.5,1.1c-0.7,0.5-1,1.3-0.8,2.1l0.4,1.8c0.2,1.1,0,2.2-0.6,3.1
			l-1,1.6c-0.4,0.7-0.4,1.6,0,2.3l1.1,1.5c0.6,0.9,0.9,2,0.7,3.1l-0.3,1.8c-0.1,0.8,0.2,1.6,0.9,2.1l1.6,1c0.9,0.6,1.6,1.5,1.8,2.6
			l0.4,1.8c0.2,0.8,0.8,1.4,1.6,1.6l1.9,0.3c1.1,0.2,2,0.8,2.7,1.7l1.1,1.5c0.5,0.7,1.3,1,2.1,0.8l1.9-0.4
			C87.6,450,88,449.9,88.3,449.9z"/>
	</g>
	<g id="XMLID_84_">
		<path id="XMLID_85_" class="st4" d="M86.9,441.4c-0.2,0-0.3,0-0.5-0.1c-0.5-0.3-0.7-0.9-0.5-1.4l11.4-22.8
			c0.3-0.5,0.9-0.7,1.4-0.5c0.5,0.3,0.7,0.9,0.5,1.4l-11.4,22.8C87.6,441.2,87.3,441.4,86.9,441.4z"/>
	</g>
	<g id="XMLID_82_">
		<path id="XMLID_83_" class="st4" d="M85.9,430c-2.5,0-4.1-1.4-4.1-3.6v-5.2c0-2.2,1.7-3.6,4.1-3.6s4.1,1.4,4.1,3.6v5.3
			C90,428.6,88.3,430,85.9,430z M85.9,419.7c-0.6,0-2,0.1-2,1.5v5.3c0,1.3,1.4,1.5,2,1.5s2-0.1,2-1.5v-5.3
			C87.9,419.8,86.5,419.7,85.9,419.7z"/>
	</g>
	<g id="XMLID_80_">
		<path id="XMLID_81_" class="st4" d="M99.1,440.4c-2.5,0-4.1-1.4-4.1-3.6v-5.3c0-2.2,1.7-3.6,4.1-3.6c2.5,0,4.1,1.4,4.1,3.6v5.3
			C103.4,438.9,101.6,440.4,99.1,440.4z M99.1,430c-0.6,0-2,0.1-2,1.5v5.3c0,1.3,1.4,1.5,2,1.5s2-0.1,2-1.5v-5.3
			C101.3,430.2,99.8,430,99.1,430z"/>
	</g>
</g>
<g id="XMLID_74_">
	<g id="XMLID_77_">
		<path id="XMLID_78_" class="st4" d="M-110.8,505.6c-5.1,0-9.3-4.2-9.3-9.3s4.2-9.3,9.3-9.3s9.3,4.2,9.3,9.3
			C-101.5,501.4-105.7,505.6-110.8,505.6z M-110.8,489.2c-4,0-7.2,3.2-7.2,7.2s3.2,7.2,7.2,7.2s7.2-3.2,7.2-7.2
			S-106.8,489.2-110.8,489.2z"/>
	</g>
	<g id="XMLID_75_">
		<path id="XMLID_76_" class="st4" d="M-107.9,521.1h-5.7c-1.5,0-2.7-1.2-2.7-2.7V515c-0.6-0.2-1.1-0.3-1.7-0.6
			c-0.7-0.3-1.3-0.6-2-0.9l-2.4,2.4c-1,1-2.8,1-3.9,0l-4-4c-0.5-0.5-0.8-1.2-0.8-1.9s0.3-1.4,0.8-1.9l2.4-2.4
			c-0.3-0.5-0.5-1-0.8-1.6c-0.3-0.7-0.5-1.3-0.7-2h-3.4c-1.5,0-2.7-1.2-2.7-2.7v-5.7c0-1.5,1.2-2.7,2.7-2.7h3.4
			c0.2-0.6,0.4-1.1,0.6-1.7c0.2-0.5,0.6-1.3,1-2l-2.4-2.4c-0.5-0.5-0.8-1.2-0.8-1.9c0-0.7,0.3-1.4,0.8-1.9l4-4c1-1,2.8-1,3.9,0
			l2.4,2.4c0.6-0.3,1.2-0.6,2-0.9c0.6-0.2,1.1-0.4,1.7-0.6v-3.4c0-1.5,1.2-2.7,2.7-2.7h5.7c1.5,0,2.7,1.2,2.7,2.7v3.4
			c0.7,0.2,1.3,0.4,2,0.7c0.6,0.3,1.1,0.5,1.6,0.8l2.4-2.4c1-1,2.8-1,3.9,0l4,4c0.5,0.5,0.8,1.2,0.8,1.9c0,0.7-0.3,1.4-0.8,1.9
			l-2.4,2.4c0.3,0.6,0.6,1.2,0.9,2c0.2,0.6,0.4,1.1,0.6,1.7h3.4c1.5,0,2.7,1.2,2.7,2.7v5.7c0,1.5-1.2,2.7-2.7,2.7h-3.4
			c-0.2,0.6-0.4,1.1-0.7,1.8c-0.3,0.7-0.5,1.1-0.8,1.7l2.4,2.4c0.5,0.5,0.8,1.2,0.8,1.9s-0.3,1.4-0.8,1.9l-4,4c-1,1-2.8,1-3.9,0
			l-2.4-2.4c-0.5,0.3-1,0.5-1.6,0.8c-0.7,0.3-1.3,0.5-2,0.7v3.4C-105.1,519.9-106.4,521.1-107.9,521.1z M-120.3,510.9l0.7,0.4
			c0.8,0.5,1.5,0.8,2.4,1.2c0.8,0.3,1.4,0.5,2.2,0.7l0.8,0.2v5c0,0.3,0.3,0.6,0.6,0.6h5.7c0.3,0,0.6-0.3,0.6-0.6v-5l0.8-0.2
			c0.9-0.2,1.6-0.5,2.5-0.9c0.8-0.3,1.4-0.6,2.1-1.1l0.7-0.4l3.5,3.5c0.2,0.2,0.6,0.2,0.9,0l4-4c0.1-0.1,0.2-0.3,0.2-0.4
			c0-0.2-0.1-0.3-0.2-0.4l-3.6-3.6l0.4-0.7c0.5-0.8,0.7-1.3,1.1-2.2c0.4-0.8,0.5-1.4,0.8-2.3l0.2-0.8h5c0.3,0,0.6-0.3,0.6-0.6v-5.7
			c0-0.3-0.3-0.6-0.6-0.6h-5l-0.2-0.8c-0.2-0.8-0.4-1.4-0.7-2.2c-0.4-0.9-0.7-1.6-1.2-2.4l-0.4-0.7l3.6-3.6c0.1-0.1,0.2-0.3,0.2-0.4
			s-0.1-0.3-0.2-0.4l-4-4c-0.2-0.2-0.6-0.2-0.9,0l-3.5,3.5l-0.7-0.4c-0.7-0.4-1.3-0.7-2.1-1.1c-0.9-0.4-1.6-0.6-2.5-0.9l-0.8-0.2v-5
			c0-0.3-0.3-0.6-0.6-0.6h-5.7c-0.3,0-0.6,0.3-0.6,0.6v5l-0.8,0.2c-0.8,0.2-1.4,0.4-2.2,0.7c-0.9,0.4-1.6,0.7-2.4,1.2l-0.7,0.4
			l-3.6-3.6c-0.2-0.2-0.6-0.2-0.9,0l-4,4c-0.1,0.1-0.2,0.3-0.2,0.4s0.1,0.3,0.2,0.4l3.5,3.5l-0.4,0.7c-0.5,0.8-1,1.9-1.2,2.5
			c-0.3,0.8-0.5,1.5-0.7,2.2l-0.2,0.8h-5c-0.3,0-0.6,0.3-0.6,0.6v5.7c0,0.3,0.3,0.6,0.6,0.6h5l0.2,0.8c0.2,0.9,0.5,1.6,0.9,2.5l0,0
			c0.3,0.8,0.6,1.4,1.1,2.1l0.4,0.7l-3.5,3.5c-0.1,0.1-0.2,0.3-0.2,0.4s0.1,0.3,0.2,0.4l4,4c0.2,0.2,0.6,0.2,0.9,0L-120.3,510.9z"/>
	</g>
</g>
<g id="XMLID_71_">
	<path id="XMLID_73_" class="st4" d="M-47.3,519.6c-0.2,0-0.4,0-0.5-0.1c-0.3-0.2-0.5-0.6-0.5-0.9v-20.3l-18.6-18.8
		c-0.3-0.3-0.4-0.8-0.2-1.2s0.6-0.7,1-0.7h47.2c0.4,0,0.8,0.3,1,0.7s0.1,0.9-0.2,1.2l-18.8,19v15c0,0.4-0.2,0.8-0.6,0.9l-9.1,5.2
		C-47,519.5-47.1,519.6-47.3,519.6z M-63.6,479.6l17.1,17.3c0.2,0.2,0.3,0.5,0.3,0.8v18.9l6.9-3.9v-14.8c0-0.3,0.1-0.6,0.3-0.8
		l17.3-17.5C-21.7,479.6-63.6,479.6-63.6,479.6z"/>
</g>
<g id="XMLID_64_">
	<g id="XMLID_69_">
		<path id="XMLID_70_" class="st4" d="M25.4,521.9c-13.6,0-24.6-11-24.6-24.6s11-24.6,24.6-24.6s24.6,11,24.6,24.6
			S39,521.9,25.4,521.9z M25.4,474.7c-12.5,0-22.6,10.1-22.6,22.6s10.1,22.6,22.6,22.6S48,509.8,48,497.3
			C48,484.9,37.9,474.7,25.4,474.7z"/>
	</g>
	<g id="XMLID_67_">
		<path id="XMLID_68_" class="st4" d="M25.4,502.3c-6.2,0-11.2-5-11.2-11.2s5-11.2,11.2-11.2s11.2,5,11.2,11.2
			S31.6,502.3,25.4,502.3z M25.4,481.9c-5.1,0-9.2,4.1-9.2,9.2s4.1,9.2,9.2,9.2s9.2-4.1,9.2-9.2C34.6,486,30.5,481.9,25.4,481.9z"/>
	</g>
	<g id="XMLID_65_">
		<path id="XMLID_66_" class="st4" d="M42.3,513.2c-3-6.6-9.6-10.9-16.9-10.9s-13.9,4.3-16.9,10.9l-1.8-0.8
			c3.3-7.3,10.7-12.1,18.7-12.1c8.1,0,15.4,4.7,18.7,12.1L42.3,513.2z"/>
	</g>
	<g id="XMLID_173_">
		<path id="XMLID_174_" class="st4" d="M41.8,499.7c-2.3,0-4.2-1.9-4.2-4.2s1.9-4.2,4.2-4.2c2.3,0,4.2,1.9,4.2,4.2
			S44.1,499.7,41.8,499.7z M41.8,492.1c-1.9,0-3.4,1.5-3.4,3.4c0,1.9,1.5,3.4,3.4,3.4c1.9,0,3.4-1.5,3.4-3.4S43.7,492.1,41.8,492.1z
			"/>
	</g>
	<g id="XMLID_170_">
		<path id="XMLID_171_" class="st4" d="M48.1,504.8c-1.1-2.5-3.6-4.1-6.3-4.1c-2.7,0-5.2,1.6-6.3,4.1l-0.7-1.3c1.2-2.7,4-4.5,7-4.5
			c3,0,5.8,1.8,7,4.5L48.1,504.8z"/>
	</g>
	<g id="XMLID_177_">
		<path id="XMLID_178_" class="st4" d="M8.8,499.7c-2.3,0-4.2-1.9-4.2-4.2s1.9-4.2,4.2-4.2s4.2,1.9,4.2,4.2S11.1,499.7,8.8,499.7z
			 M8.8,492.1c-1.9,0-3.4,1.5-3.4,3.4c0,1.9,1.5,3.4,3.4,3.4s3.4-1.5,3.4-3.4S10.7,492.1,8.8,492.1z"/>
	</g>
	<g id="XMLID_175_">
		<path id="XMLID_176_" class="st4" d="M15.1,504.8c-1.1-2.5-3.6-4.1-6.3-4.1s-5.2,1.6-6.3,4.1l-0.7-1.3c1.2-2.7,4-4.5,7-4.5
			c3,0,5.8,1.8,7,4.5L15.1,504.8z"/>
	</g>
</g>
<g id="XMLID_59_">
	<g id="XMLID_62_">
		<path id="XMLID_63_" class="st4" d="M87.6,509.3c-9.7,0-17.6-7.9-17.6-17.6s7.9-17.6,17.6-17.6s17.6,7.9,17.6,17.6
			S97.4,509.3,87.6,509.3z M87.6,476.6c-8.3,0-15.1,6.8-15.1,15.1c0,8.3,6.8,15.1,15.1,15.1s15.1-6.8,15.1-15.1
			C102.6,483.3,96,476.6,87.6,476.6z"/>
	</g>
	<g id="XMLID_60_">
		<path id="XMLID_61_" class="st4" d="M114.6,521c-0.3,0-0.7-0.1-0.9-0.4l-14.9-16.1c-0.5-0.5-0.4-1.3,0.1-1.8s1.3-0.4,1.8,0.1
			l14.9,16.1c0.5,0.5,0.4,1.3-0.1,1.8C115.3,520.9,114.9,521,114.6,521z"/>
	</g>
</g>
<g id="XMLID_54_">
	<path id="XMLID_58_" class="st4" d="M167.9,483.6v-9.4c0-2.1-1.7-3.8-3.8-3.8h-22.3c-2.1,0-3.8,1.7-3.8,3.8v44
		c0,2.1,1.7,3.8,3.8,3.8h22.3c2.1,0,3.8-1.7,3.8-3.8v-10.4h-2.4v7.5h-25.1v-39.1h25.1v7.5L167.9,483.6L167.9,483.6z M153,516.6
		c0.9,0,1.6,0.7,1.6,1.6c0,0.9-0.7,1.6-1.6,1.6s-1.6-0.7-1.6-1.6C151.4,517.3,152.1,516.6,153,516.6z M157,473.6
		c0,0.2-0.1,0.3-0.3,0.3h-7.4c-0.2,0-0.3-0.1-0.3-0.3v-0.1c0-0.2,0.1-0.3,0.3-0.3h7.4c0.2,0,0.3,0.1,0.3,0.3V473.6L157,473.6z"/>
	<polygon id="XMLID_57_" class="st4" points="182.4,480.6 180.7,480.6 179.4,480.6 174.4,503.3 154.5,503.3 151.2,488.8 
		174.4,488.8 175.1,485.8 147.6,485.8 152.1,506.3 173.8,506.3 176.7,506.3 181.8,483.5 186.1,483.5 186.1,480.6 	"/>
	<circle id="XMLID_56_" class="st4" cx="157.4" cy="510.1" r="2.8"/>
	<circle id="XMLID_55_" class="st4" cx="171.8" cy="510.1" r="2.8"/>
</g>
<polygon id="XMLID_13_" class="st4" points="150.6,429 172.9,406.7 170.7,404.5 146.2,429 170.7,453.5 172.9,451.3 "/>
<g id="XMLID_179_">
	<g id="XMLID_196_">
		<path id="XMLID_197_" class="st2" d="M25.4,385.9c-13.6,0-24.6-11-24.6-24.6c0-13.6,11-24.6,24.6-24.6s24.6,11,24.6,24.6
			C50,374.9,39,385.9,25.4,385.9z M25.4,338.7c-12.5,0-22.6,10.1-22.6,22.6s10.1,22.6,22.6,22.6S48,373.8,48,361.3
			C48,348.9,37.9,338.7,25.4,338.7z"/>
	</g>
	<g id="XMLID_192_">
		<path id="XMLID_193_" class="st2" d="M25.4,366.3c-6.2,0-11.2-5-11.2-11.2s5-11.2,11.2-11.2s11.2,5,11.2,11.2
			S31.6,366.3,25.4,366.3z M25.4,345.9c-5.1,0-9.2,4.1-9.2,9.2c0,5.1,4.1,9.2,9.2,9.2s9.2-4.1,9.2-9.2S30.5,345.9,25.4,345.9z"/>
	</g>
	<g id="XMLID_189_">
		<path id="XMLID_190_" class="st2" d="M42.3,377.2c-3-6.6-9.6-10.9-16.9-10.9s-13.9,4.3-16.9,10.9l-1.8-0.8
			c3.3-7.3,10.7-12.1,18.7-12.1c8.1,0,15.4,4.7,18.7,12.1L42.3,377.2z"/>
	</g>
	<g id="XMLID_186_">
		<path id="XMLID_187_" class="st2" d="M41.8,363.7c-2.3,0-4.2-1.9-4.2-4.2s1.9-4.2,4.2-4.2c2.3,0,4.2,1.9,4.2,4.2
			S44.1,363.7,41.8,363.7z M41.8,356.6c-1.6,0-2.9,1.3-2.9,2.9s1.3,2.9,2.9,2.9c1.6,0,2.9-1.3,2.9-2.9
			C44.7,357.9,43.4,356.6,41.8,356.6z"/>
	</g>
	<g id="XMLID_14_">
		<path id="XMLID_26_" class="st2" d="M8.8,363.7c-2.3,0-4.2-1.9-4.2-4.2s1.9-4.2,4.2-4.2s4.2,1.9,4.2,4.2S11.1,363.7,8.8,363.7z
			 M8.8,356.6c-1.6,0-2.9,1.3-2.9,2.9s1.3,2.9,2.9,2.9s2.9-1.3,2.9-2.9C11.7,357.9,10.4,356.6,8.8,356.6z"/>
	</g>
	<g id="XMLID_184_">
		<path id="XMLID_185_" class="st2" d="M48.1,368.8c-1.1-2.5-3.6-4.1-6.3-4.1c-2.7,0-5.2,1.6-6.3,4.1l-0.7-1.3c1.2-2.7,4-4.5,7-4.5
			c3,0,5.8,1.8,7,4.5L48.1,368.8z"/>
	</g>
	<g id="XMLID_182_">
		<path id="XMLID_183_" class="st2" d="M8.8,363.7c-2.3,0-4.2-1.9-4.2-4.2s1.9-4.2,4.2-4.2s4.2,1.9,4.2,4.2S11.1,363.7,8.8,363.7z
			 M8.8,356.1c-1.9,0-3.4,1.5-3.4,3.4c0,1.9,1.5,3.4,3.4,3.4s3.4-1.5,3.4-3.4C12.2,357.6,10.7,356.1,8.8,356.1z"/>
	</g>
	<g id="XMLID_180_">
		<path id="XMLID_181_" class="st2" d="M15.1,368.8c-1.1-2.5-3.6-4.1-6.3-4.1s-5.2,1.6-6.3,4.1l-0.7-1.3c1.2-2.7,4-4.5,7-4.5
			c3,0,5.8,1.8,7,4.5L15.1,368.8z"/>
	</g>
</g>
<g id="XMLID_27_">
	<path id="XMLID_28_" class="st4" d="M8.8,499.7c-2.3,0-4.2-1.9-4.2-4.2s1.9-4.2,4.2-4.2s4.2,1.9,4.2,4.2S11.1,499.7,8.8,499.7z
		 M8.8,492.6c-1.6,0-2.9,1.3-2.9,2.9c0,1.6,1.3,2.9,2.9,2.9s2.9-1.3,2.9-2.9C11.7,493.9,10.4,492.6,8.8,492.6z"/>
</g>
<g id="XMLID_29_">
	<path id="XMLID_118_" class="st4" d="M41.8,499.7c-2.3,0-4.2-1.9-4.2-4.2s1.9-4.2,4.2-4.2c2.3,0,4.2,1.9,4.2,4.2
		S44.1,499.7,41.8,499.7z M41.8,492.6c-1.6,0-2.9,1.3-2.9,2.9c0,1.6,1.3,2.9,2.9,2.9c1.6,0,2.9-1.3,2.9-2.9
		C44.7,493.9,43.4,492.6,41.8,492.6z"/>
</g>
</svg>
